<?xml version="1.0" standalone="no"?><svg xmlns:xlink="http://www.w3.org/1999/xlink" xmlns="http://www.w3.org/2000/svg" viewBox="0 0 1000 666.6666666666666" preserveAspectRatio="xMaxYMax slice"><g transform="scale(1.8165304268846503)"><rect x="0" y="0" width="550.5" height="367" fill="#ffffff"/><rect x="0" y="0" width="61.17" height="61.17" fill="#4766e7"/><polygon points="0,0 61.17,61.17 0,61.17" fill="#ff557d"/><rect x="244.66666666666666" y="0" width="61.166666666666664" height="61.166666666666664" fill="#ffffff"/><rect x="244.67" y="0" width="30.58" height="30.58" fill="#93a5f1"/><path d="M 244.67 30.58 A 30.58 30.58 0 0 0 275.25 0 L 244.67 0" fill="#3759e5"/><rect x="244.67" y="30.58" width="30.58" height="30.58" fill="#ff3c6a"/><path d="M 244.67 30.58 A 30.58 30.58 0 0 1 275.25 61.16 L 244.67 61.16" fill="#6c85ec"/><rect x="275.25" y="30.58" width="30.58" height="30.58" fill="#ffffff"/><path d="M 275.25 61.16 A 30.58 30.58 0 0 1  305.83 30.58 L 305.83 61.16" fill="#8a9ef0"/><rect x="305.83" y="0" width="61.17" height="61.17" fill="#1c42e2"/><path d="M 305.83 61.17 A 61.17 61.17 0 0 0 367 0 L 305.83 0" fill="#fffefe"/><rect x="367" y="0" width="61.166666666666664" height="61.166666666666664" fill="#ffffff"/><rect x="367" y="0" width="30.58" height="30.58" fill="#ffaabe"/><polygon points="397.58,0 397.58,30.58 367,30.58" fill="#ff4974"/><rect x="397.58" y="0" width="30.58" height="30.58" fill="#fff4f7"/><polygon points="397.58,0 428.15999999999997,30.58 397.58,30.58" fill="#9bacf2"/><rect x="367" y="30.58" width="30.58" height="30.58" fill="#ff3b6a"/><polygon points="367,30.58 397.58,30.58 397.58,61.16" fill="#cdd5f8"/><rect x="397.58" y="30.58" width="30.58" height="30.58" fill="#dfe4fb"/><polygon points="397.58,30.58 428.15999999999997,30.58 397.58,61.16" fill="#758ced"/><rect x="489.33" y="0" width="61.17" height="61.17" fill="#5471e9"/><path d="M 489.33 0 A 61.17 61.17 0 0 1  550.5 61.17 L 489.33 0 A 61.17 61.17 0 0 0 550.5 61.17" fill="#b0bdf5"/><rect x="61.17" y="61.17" width="61.17" height="61.17" fill="#6d86ec"/><polygon points="61.17,61.17 122.34,61.17 122.34,122.34" fill="#b1bef5"/><rect x="122.33" y="61.17" width="61.17" height="61.17" fill="#ffcfda"/><polygon points="122.33,61.17 183.5,61.17 183.5,122.34" fill="#ff95ae"/><rect x="183.5" y="61.17" width="61.17" height="61.17" fill="#ffdee6"/><path d="M 183.5 61.17 A 61.17 61.17 0 0 1 244.67000000000002 122.34 L 183.5 122.34" fill="#97a8f1"/><rect x="244.67" y="61.17" width="61.17" height="61.17" fill="#dce2fa"/><polygon points="244.67,61.17 305.84,61.17 244.67,122.34" fill="#5370e9"/><rect x="305.8333333333333" y="61.166666666666664" width="61.166666666666664" height="61.166666666666664" fill="#ffffff"/><rect x="336.42" y="91.75" width="30.58" height="30.58" fill="#ffd2dc"/><polygon points="336.42,91.75 367,91.75 367,122.33" fill="#ffc2d1"/><rect x="428.17" y="61.17" width="61.17" height="61.17" fill="#ff5e84"/><rect x="428.17" y="61.17" width="61.17" height="61.17" fill="#ff3b6a"/><rect x="0" y="122.33" width="61.17" height="61.17" fill="#ff87a3"/><rect x="0" y="122.33" width="61.17" height="61.17" fill="#3356e5"/><rect x="61.17" y="122.33" width="61.17" height="61.17" fill="#ff4c76"/><path d="M 61.17 122.33 A 61.17 61.17 0 0 1  122.34 183.5 L 61.17 122.33 A 61.17 61.17 0 0 0 122.34 183.5" fill="#ff3968"/><rect x="122.33" y="122.33" width="61.17" height="61.17" fill="#ff5e84"/><path d="M 122.33 122.33 A 61.17 61.17 0 0 1 183.5 183.5 L 122.33 183.5" fill="#ff3666"/><rect x="183.5" y="122.33" width="61.17" height="61.17" fill="#6781eb"/><path d="M 183.5 122.33 A 61.17 61.17 0 0 0 244.67000000000002 183.5 L 244.67000000000002 122.33" fill="#ffb4c6"/><rect x="305.83" y="122.33" width="61.17" height="61.17" fill="#dce2fb"/><rect x="305.83" y="122.33" width="61.17" height="61.17" fill="#ff3968"/><rect x="367" y="122.33333333333333" width="61.166666666666664" height="61.166666666666664" fill="#ffffff"/><rect x="367" y="152.92" width="30.58" height="30.58" fill="#627ceb"/><polygon points="367,152.92 397.58,152.92 397.58,183.5" fill="#8c9ff0"/><rect x="397.58" y="152.92" width="30.58" height="30.58" fill="#fff5f8"/><polygon points="397.58,152.92 428.15999999999997,152.92 397.58,183.5" fill="#f4f6fe"/><rect x="0" y="183.5" width="61.17" height="61.17" fill="#6781eb"/><rect x="0" y="183.5" width="61.17" height="61.17" fill="#1a41e1"/><rect x="122.33333333333333" y="183.5" width="61.166666666666664" height="61.166666666666664" fill="#ffffff"/><rect x="122.33" y="183.5" width="30.58" height="30.58" fill="#a4b3f3"/><path d="M 122.33 214.07999999999998 A 30.58 30.58 0 0 1  152.91 183.5 L 152.91 214.07999999999998" fill="#bac5f6"/><rect x="152.92" y="183.5" width="30.58" height="30.58" fill="#ff9fb6"/><path d="M 152.92 183.5 A 30.58 30.58 0 0 1 183.5 214.07999999999998 L 152.92 214.07999999999998" fill="#ff84a2"/><rect x="152.92" y="214.08" width="30.58" height="30.58" fill="#ff9bb2"/><path d="M 152.92 244.66000000000003 A 30.58 30.58 0 0 0 183.5 214.08 L 152.92 214.08" fill="#ffa7bc"/><rect x="183.5" y="183.5" width="61.17" height="61.17" fill="#ff8ba7"/><polygon points="244.67000000000002,183.5 244.67000000000002,244.67000000000002 183.5,244.67000000000002" fill="#f3f5fd"/><rect x="244.66666666666666" y="183.5" width="61.166666666666664" height="61.166666666666664" fill="#ffffff"/><rect x="244.67" y="183.5" width="30.58" height="30.58" fill="#fffcfd"/><path d="M 244.67 183.5 A 30.58 30.58 0 0 0 275.25 214.07999999999998 L 275.25 183.5" fill="#2248e2"/><rect x="244.67" y="214.08" width="30.58" height="30.58" fill="#ffc7d4"/><path d="M 244.67 244.66000000000003 A 30.58 30.58 0 0 1  275.25 214.08 L 275.25 244.66000000000003" fill="#ffe4eb"/><rect x="275.25" y="214.08" width="30.58" height="30.58" fill="#788fed"/><path d="M 275.25 214.08 A 30.58 30.58 0 0 1 305.83 244.66000000000003 L 275.25 244.66000000000003" fill="#4b69e8"/><rect x="305.83" y="183.5" width="61.17" height="61.17" fill="#2c50e4"/><polygon points="305.83,183.5 367,183.5 367,244.67000000000002" fill="#ff83a0"/><rect x="428.16666666666663" y="183.5" width="61.166666666666664" height="61.166666666666664" fill="#ffffff"/><rect x="458.75" y="183.5" width="30.58" height="30.58" fill="#ffa1b8"/><path d="M 458.75 183.5 A 30.58 30.58 0 0 0 489.33 214.07999999999998 L 489.33 183.5" fill="#ffa9bd"/><rect x="428.17" y="214.08" width="30.58" height="30.58" fill="#5b77ea"/><path d="M 428.17 214.08 A 30.58 30.58 0 0 1 458.75 244.66000000000003 L 428.17 244.66000000000003" fill="#ff7294"/><rect x="458.75" y="214.08" width="30.58" height="30.58" fill="#274be3"/><path d="M 458.75 244.66000000000003 A 30.58 30.58 0 0 1  489.33 214.08 L 489.33 244.66000000000003" fill="#9daef2"/><rect x="0" y="244.66666666666666" width="61.166666666666664" height="61.166666666666664" fill="#ffffff"/><rect x="0" y="244.67" width="30.58" height="30.58" fill="#2b4fe4"/><path d="M 0 244.67 A 30.58 30.58 0 0 1 30.58 275.25 L 0 275.25" fill="#ff94ad"/><rect x="30.58" y="244.67" width="30.58" height="30.58" fill="#ffa1b7"/><path d="M 30.58 275.25 A 30.58 30.58 0 0 1  61.16 244.67 L 61.16 275.25" fill="#eef1fd"/><rect x="0" y="275.25" width="30.58" height="30.58" fill="#ffc6d4"/><path d="M 0 305.83 A 30.58 30.58 0 0 0 30.58 275.25 L 0 275.25" fill="#ffeef2"/><rect x="61.166666666666664" y="244.66666666666666" width="61.166666666666664" height="61.166666666666664" fill="#ffffff"/><rect x="61.17" y="244.67" width="30.58" height="30.58" fill="#d5dcfa"/><path d="M 61.17 244.67 A 30.58 30.58 0 0 1 91.75 275.25 L 61.17 275.25" fill="#ffbbcb"/><rect x="61.17" y="275.25" width="30.58" height="30.58" fill="#f5f7fe"/><path d="M 61.17 305.83 A 30.58 30.58 0 0 0 91.75 275.25 L 61.17 275.25" fill="#ffdde5"/><rect x="183.5" y="244.67" width="61.17" height="61.17" fill="#ebeffc"/><path d="M 183.5 244.67 A 61.17 61.17 0 0 1  244.67000000000002 305.84 L 183.5 244.67 A 61.17 61.17 0 0 0 244.67000000000002 305.84" fill="#8196ef"/><rect x="305.8333333333333" y="244.66666666666666" width="61.166666666666664" height="61.166666666666664" fill="#ffffff"/><rect x="305.83" y="244.67" width="30.58" height="30.58" fill="#2b4fe4"/><polygon points="336.40999999999997,244.67 336.40999999999997,275.25 305.83,275.25" fill="#c5cef7"/><rect x="336.42" y="244.67" width="30.58" height="30.58" fill="#5270e9"/><polygon points="336.42,244.67 367,244.67 336.42,275.25" fill="#506ee8"/><rect x="305.83" y="275.25" width="30.58" height="30.58" fill="#6b84ec"/><polygon points="305.83,275.25 336.40999999999997,275.25 336.40999999999997,305.83" fill="#ffa3b9"/><rect x="336.42" y="275.25" width="30.58" height="30.58" fill="#ffe8ee"/><polygon points="336.42,275.25 367,305.83 336.42,305.83" fill="#ff7394"/><rect x="367" y="244.66666666666666" width="61.166666666666664" height="61.166666666666664" fill="#ffffff"/><rect x="367" y="244.67" width="30.58" height="30.58" fill="#92a4f1"/><path d="M 367 275.25 A 30.58 30.58 0 0 0 397.58 244.67 L 367 244.67" fill="#a7b6f4"/><rect x="367" y="275.25" width="30.58" height="30.58" fill="#ff5c83"/><path d="M 367 275.25 A 30.58 30.58 0 0 1 397.58 305.83 L 367 305.83" fill="#ffd5df"/><rect x="397.58" y="275.25" width="30.58" height="30.58" fill="#869bef"/><path d="M 397.58 305.83 A 30.58 30.58 0 0 1  428.15999999999997 275.25 L 428.15999999999997 305.83" fill="#ff7d9c"/><rect x="489.33" y="244.67" width="61.17" height="61.17" fill="#8da0f0"/><path d="M 489.33 244.67 A 61.17 61.17 0 0 1  550.5 305.84 L 489.33 244.67 A 61.17 61.17 0 0 0 550.5 305.84" fill="#3254e4"/><rect x="0" y="305.83" width="61.17" height="61.17" fill="#ffdbe4"/><path d="M 0 305.83 A 61.17 61.17 0 0 1 61.17 367 L 0 367" fill="#d6ddfa"/><rect x="61.17" y="305.83" width="61.17" height="61.17" fill="#fefeff"/><polygon points="122.34,305.83 122.34,367 61.17,367" fill="#ff426f"/><rect x="122.33333333333333" y="305.8333333333333" width="61.166666666666664" height="61.166666666666664" fill="#ffffff"/><rect x="152.92" y="305.83" width="30.58" height="30.58" fill="#f6f8fe"/><path d="M 152.92 336.40999999999997 A 30.58 30.58 0 0 0 183.5 305.83 L 152.92 305.83" fill="#657feb"/><rect x="152.92" y="336.42" width="30.58" height="30.58" fill="#879bef"/><path d="M 152.92 336.42 A 30.58 30.58 0 0 1 183.5 367 L 152.92 367" fill="#ffbbcb"/><rect x="183.5" y="305.8333333333333" width="61.166666666666664" height="61.166666666666664" fill="#ffffff"/><rect x="183.5" y="305.83" width="30.58" height="30.58" fill="#d2d9f9"/><polygon points="214.07999999999998,305.83 214.07999999999998,336.40999999999997 183.5,336.40999999999997" fill="#c1ccf7"/><rect x="183.5" y="336.42" width="30.58" height="30.58" fill="#3658e5"/><polygon points="183.5,336.42 214.07999999999998,336.42 183.5,367" fill="#ff7898"/><rect x="214.08" y="336.42" width="30.58" height="30.58" fill="#ffb0c3"/><polygon points="214.08,336.42 244.66000000000003,336.42 244.66000000000003,367" fill="#8297ef"/><rect x="305.83" y="305.83" width="61.17" height="61.17" fill="#7c92ee"/><polygon points="367,305.83 367,367 305.83,367" fill="#ff8da8"/><rect x="367" y="305.8333333333333" width="61.166666666666664" height="61.166666666666664" fill="#ffffff"/><rect x="367" y="305.83" width="30.58" height="30.58" fill="#ffdee6"/><polygon points="397.58,305.83 397.58,336.40999999999997 367,336.40999999999997" fill="#2146e2"/><rect x="367" y="336.42" width="30.58" height="30.58" fill="#92a4f1"/><polygon points="367,336.42 397.58,336.42 367,367" fill="#bac5f6"/><rect x="489.33" y="305.83" width="61.17" height="61.17" fill="#ffb7c8"/><polygon points="489.33,305.83 550.5,367 489.33,367" fill="#ff3767"/></g></svg>